<svg xmlns="http://www.w3.org/2000/svg" xmlns:xlink="http://www.w3.org/1999/xlink" width="564" zoomAndPan="magnify" viewBox="0 0 422.88 989.999987" height="1320" preserveAspectRatio="xMidYMid meet" version="1.0"><path fill="#003062" d="M 383.0625 228.074219 C 380.121094 242.050781 366.398438 250.996094 352.421875 248.054688 C 338.4375 245.117188 329.488281 231.394531 332.433594 217.414062 C 335.371094 203.429688 349.089844 194.484375 363.074219 197.421875 C 377.054688 200.363281 386.003906 214.085938 383.0625 228.074219 Z M 354.625 363.179688 C 351.679688 377.164062 337.96875 386.113281 323.984375 383.171875 C 310 380.230469 301.058594 366.507812 303.996094 352.53125 C 306.941406 338.550781 320.65625 329.597656 334.640625 332.539062 C 348.621094 335.484375 357.566406 349.203125 354.625 363.179688 Z M 301.289062 281.410156 C 298.347656 295.390625 284.625 304.339844 270.640625 301.398438 C 256.664062 298.453125 247.710938 284.734375 250.660156 270.753906 C 253.597656 256.769531 267.316406 247.820312 281.296875 250.769531 C 295.28125 253.707031 304.226562 267.429688 301.289062 281.410156 Z M 247.945312 199.632812 C 245.003906 213.613281 231.28125 222.570312 217.304688 219.621094 C 203.320312 216.683594 194.371094 202.957031 197.3125 188.980469 C 200.257812 175 213.976562 166.050781 227.960938 168.984375 C 241.9375 171.9375 250.890625 185.648438 247.945312 199.632812 Z M 219.515625 334.753906 C 216.570312 348.726562 202.847656 357.675781 188.867188 354.738281 C 174.886719 351.792969 165.9375 338.082031 168.878906 324.09375 C 171.824219 310.117188 185.542969 301.164062 199.523438 304.109375 C 213.503906 307.050781 222.457031 320.769531 219.515625 334.753906 Z M 395.960938 172.832031 L 207.769531 133.230469 C 191.777344 129.867188 176.089844 140.101562 172.722656 156.085938 L 133.117188 344.285156 C 129.753906 360.269531 139.992188 375.964844 155.976562 379.328125 L 344.175781 418.929688 C 360.164062 422.296875 375.851562 412.066406 379.21875 396.074219 L 418.820312 207.878906 C 422.1875 191.894531 411.953125 176.195312 395.960938 172.832031 Z M 113.699219 263.492188 C 100 267.578125 85.589844 259.796875 81.503906 246.105469 C 77.414062 232.414062 85.203125 218.007812 98.890625 213.917969 C 112.582031 209.824219 126.992188 217.613281 131.078125 231.304688 C 135.167969 244.996094 127.382812 259.398438 113.699219 263.492188 Z M 191.683594 42.109375 C 205.378906 38.023438 219.789062 45.808594 223.878906 59.496094 C 227.964844 73.1875 220.183594 87.597656 206.488281 91.6875 C 192.800781 95.773438 178.386719 87.988281 174.296875 74.296875 C 170.210938 60.609375 177.992188 46.203125 191.683594 42.109375 Z M 163.074219 154.054688 C 166.890625 135.90625 183.113281 122.722656 201.648438 122.722656 C 204.371094 122.722656 207.113281 123.003906 209.800781 123.574219 L 279.582031 138.265625 L 245.667969 24.683594 C 240.992188 9.027344 224.503906 0.128906 208.847656 4.800781 L 24.574219 59.824219 C 8.917969 64.496094 0.0117188 80.984375 4.691406 96.636719 L 59.714844 280.917969 C 64.386719 296.578125 80.875 305.476562 96.527344 300.808594 L 134.582031 289.4375 L 163.074219 154.054688 " fill-opacity="1" fill-rule="nonzero"/><path fill="#000000" d="M 383.0625 795.5 C 380.121094 809.480469 366.398438 818.425781 352.421875 815.480469 C 338.4375 812.542969 329.488281 798.820312 332.433594 784.84375 C 335.371094 770.859375 349.089844 761.914062 363.074219 764.851562 C 377.054688 767.792969 386.003906 781.515625 383.0625 795.5 Z M 354.625 930.609375 C 351.679688 944.59375 337.96875 953.542969 323.984375 950.597656 C 310 947.660156 301.058594 933.9375 303.996094 919.960938 C 306.941406 905.976562 320.65625 897.023438 334.640625 899.96875 C 348.621094 902.914062 357.566406 916.628906 354.625 930.609375 Z M 301.289062 848.835938 C 298.347656 862.820312 284.625 871.769531 270.640625 868.828125 C 256.664062 865.878906 247.710938 852.164062 250.660156 838.179688 C 253.597656 824.199219 267.316406 815.25 281.296875 818.195312 C 295.28125 821.132812 304.226562 834.859375 301.289062 848.835938 Z M 247.945312 767.058594 C 245.003906 781.039062 231.28125 789.996094 217.304688 787.046875 C 203.320312 784.109375 194.371094 770.382812 197.3125 756.40625 C 200.257812 742.425781 213.976562 733.476562 227.960938 736.410156 C 241.9375 739.367188 250.890625 753.074219 247.945312 767.058594 Z M 219.515625 902.179688 C 216.570312 916.152344 202.847656 925.101562 188.867188 922.164062 C 174.886719 919.21875 165.9375 905.507812 168.878906 891.523438 C 171.824219 877.542969 185.542969 868.589844 199.523438 871.539062 C 213.503906 874.480469 222.457031 888.195312 219.515625 902.179688 Z M 395.960938 740.257812 L 207.769531 700.660156 C 191.777344 697.296875 176.089844 707.53125 172.722656 723.511719 L 133.117188 911.714844 C 129.753906 927.699219 139.992188 943.394531 155.976562 946.757812 L 344.175781 986.355469 C 360.164062 989.726562 375.851562 979.492188 379.21875 963.503906 L 418.820312 775.308594 C 422.1875 759.320312 411.953125 743.625 395.960938 740.257812 Z M 113.699219 830.921875 C 100 835.003906 85.589844 827.222656 81.503906 813.53125 C 77.414062 799.84375 85.203125 785.4375 98.890625 781.347656 C 112.582031 777.253906 126.992188 785.042969 131.078125 798.730469 C 135.167969 812.421875 127.382812 826.828125 113.699219 830.921875 Z M 191.683594 609.535156 C 205.378906 605.449219 219.789062 613.234375 223.878906 626.921875 C 227.964844 640.617188 220.183594 655.027344 206.488281 659.117188 C 192.800781 663.203125 178.386719 655.417969 174.296875 641.726562 C 170.210938 628.035156 177.992188 613.632812 191.683594 609.535156 Z M 163.074219 721.480469 C 166.890625 703.335938 183.113281 690.152344 201.648438 690.152344 C 204.371094 690.152344 207.113281 690.433594 209.800781 691.003906 L 279.582031 705.695312 L 245.667969 592.113281 C 240.992188 576.457031 224.503906 567.554688 208.847656 572.226562 L 24.574219 627.253906 C 8.917969 631.925781 0.0117188 648.410156 4.691406 664.066406 L 59.714844 848.34375 C 64.386719 864.007812 80.875 872.90625 96.527344 868.234375 L 134.582031 856.867188 L 163.074219 721.480469 " fill-opacity="1" fill-rule="nonzero"/></svg>