<svg xmlns="http://www.w3.org/2000/svg" xmlns:xlink="http://www.w3.org/1999/xlink" width="402" zoomAndPan="magnify" viewBox="0 0 301.5 1021.499952" height="1362" preserveAspectRatio="xMidYMid meet" version="1.0"><defs><clipPath id="9db07d8ddc"><path d="M 0 754.863281 L 301 754.863281 L 301 1020.40625 L 0 1020.40625 Z M 0 754.863281 " clip-rule="nonzero"/></clipPath><clipPath id="7d5e9da827"><path d="M 34 351.703125 L 266 351.703125 L 266 633.988281 L 34 633.988281 Z M 34 351.703125 " clip-rule="nonzero"/></clipPath></defs><g clip-path="url(#9db07d8ddc)"><path fill="#933200" d="M 169.839844 893.152344 C 185.292969 893.019531 198.238281 890.246094 208.40625 884.699219 C 218.707031 879.285156 225.972656 872.285156 230.460938 863.832031 C 234.953125 855.378906 237.726562 842.433594 238.914062 825 C 240.105469 807.566406 241.953125 795.152344 244.726562 787.886719 C 248.425781 778.378906 254.894531 770.585938 264.007812 764.511719 C 273.121094 758.4375 285.40625 755.265625 300.859375 754.871094 L 300.859375 762 C 291.875 762.792969 285.800781 765.566406 282.632812 770.324219 C 280.253906 773.757812 279.066406 782.738281 278.933594 797 C 278.539062 825.132812 275.894531 844.8125 270.746094 856.039062 C 264.273438 870.832031 253.046875 882.71875 237.199219 891.699219 C 221.21875 900.679688 198.765625 905.699219 169.839844 906.753906 L 169.839844 983.226562 C 169.839844 993.925781 172.21875 1001.585938 176.972656 1006.207031 C 181.726562 1010.828125 189.785156 1013.207031 201.140625 1013.207031 L 208.140625 1013.207031 L 208.140625 1020.339844 L 94.160156 1020.339844 L 94.160156 1013.207031 L 100.898438 1013.207031 C 112.257812 1013.207031 120.3125 1010.828125 125.066406 1006.207031 C 129.824219 1001.585938 132.199219 993.925781 132.199219 983.226562 L 132.199219 906.886719 C 107.765625 906.09375 88.484375 902.660156 74.21875 896.585938 C 59.953125 890.507812 48.464844 882.058594 39.878906 871.09375 C 34.070312 863.699219 29.972656 856.171875 27.464844 848.246094 C 25.746094 842.699219 24.558594 836.226562 23.632812 828.699219 L 22.445312 784.058594 C 21.917969 776.132812 20.066406 770.71875 17.03125 767.679688 C 13.992188 764.644531 8.3125 762.792969 -0.0078125 762.132812 L -0.0078125 755 C 15.972656 755.792969 28.257812 758.699219 36.839844 763.851562 C 45.425781 769 51.632812 775.871094 55.464844 784.71875 C 59.292969 793.566406 61.804688 808.226562 62.859375 828.566406 C 63.785156 843.753906 66.425781 855.640625 70.785156 863.964844 C 75.144531 872.285156 82.539062 879.285156 92.972656 884.699219 C 103.40625 890.113281 116.351562 893.019531 132.199219 893.152344 L 132.199219 795.285156 C 132.199219 784.585938 129.824219 776.925781 125.066406 772.304688 C 120.3125 767.679688 112.257812 765.304688 100.898438 765.304688 L 94.160156 765.304688 L 94.160156 758.171875 L 208.140625 758.171875 L 208.140625 765.304688 L 201.140625 765.304688 C 189.785156 765.304688 181.726562 767.679688 176.972656 772.304688 C 172.21875 776.925781 169.839844 784.585938 169.839844 795.285156 Z M 169.839844 893.152344 " fill-opacity="1" fill-rule="nonzero"/></g><g clip-path="url(#7d5e9da827)"><path fill="#933200" d="M 117.21875 351.703125 C 112.359375 351.703125 108.425781 357.367188 108.425781 362.226562 L 108.425781 366.390625 C 108.425781 369.832031 110.40625 372.789062 113.273438 374.230469 C 113.230469 374.800781 113.191406 375.375 113.191406 375.957031 L 113.191406 458.738281 C 111.890625 461.1875 110.621094 463.742188 109.246094 466.273438 L 38.105469 594.957031 C 26.652344 616.015625 48.449219 633.921875 61.289062 633.921875 L 239.296875 633.921875 C 252.132812 633.921875 274.167969 616.445312 262.480469 594.957031 L 191.34375 466.273438 C 189.96875 463.742188 188.699219 461.1875 187.398438 458.738281 L 187.398438 375.957031 C 187.398438 375.375 187.359375 374.800781 187.316406 374.230469 C 190.183594 372.789062 192.167969 369.832031 192.167969 366.390625 L 192.167969 362.226562 C 192.167969 357.367188 188.257812 351.703125 183.398438 351.703125 Z M 117.21875 351.703125 " fill-opacity="1" fill-rule="nonzero"/></g><path fill="#ffffff" d="M 136.621094 455.710938 L 164.074219 455.710938 C 174.996094 455.710938 178.570312 465.886719 183.789062 475.535156 L 245.78125 590.148438 C 258.304688 613.296875 236.988281 623.480469 226.066406 623.480469 L 74.625 623.480469 C 63.703125 623.480469 43.753906 610.777344 54.910156 590.148438 L 116.90625 475.535156 C 122.125 465.886719 125.699219 455.710938 136.621094 455.710938 Z M 136.621094 455.710938 " fill-opacity="1" fill-rule="nonzero"/><path fill="#ffffff" d="M 122.152344 369.507812 L 178.472656 369.507812 L 178.472656 472.710938 L 122.152344 472.710938 Z M 122.152344 369.507812 " fill-opacity="1" fill-rule="nonzero"/><path fill="#ffffff" d="M 117.15625 367.027344 L 117.15625 362.9375 C 117.15625 362.4375 117.25 361.957031 117.441406 361.492188 C 117.632812 361.03125 117.90625 360.625 118.261719 360.269531 C 118.613281 359.917969 119.019531 359.644531 119.484375 359.453125 C 119.945312 359.261719 120.425781 359.167969 120.925781 359.167969 L 179.613281 359.167969 C 180.113281 359.167969 180.59375 359.261719 181.054688 359.453125 C 181.519531 359.644531 181.925781 359.917969 182.277344 360.269531 C 182.632812 360.625 182.90625 361.03125 183.097656 361.492188 C 183.289062 361.957031 183.382812 362.4375 183.382812 362.9375 L 183.382812 367.027344 C 183.382812 367.527344 183.289062 368.007812 183.097656 368.46875 C 182.90625 368.929688 182.632812 369.339844 182.277344 369.691406 C 181.925781 370.046875 181.519531 370.316406 181.054688 370.507812 C 180.59375 370.699219 180.113281 370.796875 179.613281 370.796875 L 120.925781 370.796875 C 120.425781 370.796875 119.945312 370.699219 119.484375 370.507812 C 119.019531 370.316406 118.613281 370.046875 118.261719 369.691406 C 117.90625 369.339844 117.632812 368.929688 117.441406 368.46875 C 117.25 368.007812 117.15625 367.527344 117.15625 367.027344 Z M 117.15625 367.027344 " fill-opacity="1" fill-rule="nonzero"/><path fill="#933200" d="M 186.503906 492.417969 L 235.980469 586.476562 C 246.8125 607.066406 228.207031 615.941406 218.550781 615.941406 L 84.671875 615.941406 C 75.015625 615.941406 57.339844 604.6875 67.242188 586.476562 L 115.75 497.261719 C 158.640625 514.085938 174.238281 467.324219 186.503906 492.417969 Z M 186.503906 492.417969 " fill-opacity="1" fill-rule="nonzero"/><path fill="#ffffff" d="M 156.390625 560.792969 C 156.390625 569.621094 149.234375 576.777344 140.40625 576.777344 C 131.578125 576.777344 124.421875 569.621094 124.421875 560.792969 C 124.421875 551.96875 131.578125 544.8125 140.40625 544.8125 C 149.234375 544.8125 156.390625 551.96875 156.390625 560.792969 Z M 156.390625 560.792969 " fill-opacity="1" fill-rule="nonzero"/><path fill="#ffffff" d="M 133.667969 541.675781 C 133.667969 546.890625 129.441406 551.121094 124.222656 551.121094 C 119.007812 551.121094 114.777344 546.890625 114.777344 541.675781 C 114.777344 536.457031 119.007812 532.230469 124.222656 532.230469 C 129.441406 532.230469 133.667969 536.457031 133.667969 541.675781 Z M 133.667969 541.675781 " fill-opacity="1" fill-rule="nonzero"/><path fill="#ffffff" d="M 170.953125 523.28125 C 170.953125 526.359375 168.460938 528.851562 165.382812 528.851562 C 162.308594 528.851562 159.8125 526.359375 159.8125 523.28125 C 159.8125 520.207031 162.308594 517.710938 165.382812 517.710938 C 168.460938 517.710938 170.953125 520.207031 170.953125 523.28125 Z M 170.953125 523.28125 " fill-opacity="1" fill-rule="nonzero"/><path fill="#933200" d="M 164.664062 371.652344 C 164.933594 371.652344 165.195312 371.679688 165.457031 371.730469 C 165.71875 371.78125 165.972656 371.859375 166.21875 371.960938 C 166.464844 372.0625 166.699219 372.1875 166.921875 372.335938 C 167.140625 372.484375 167.347656 372.652344 167.535156 372.839844 C 167.722656 373.027344 167.890625 373.234375 168.039062 373.457031 C 168.1875 373.675781 168.3125 373.910156 168.414062 374.15625 C 168.515625 374.402344 168.59375 374.65625 168.644531 374.917969 C 168.699219 375.179688 168.722656 375.445312 168.722656 375.710938 L 168.722656 455.917969 C 168.722656 456.183594 168.699219 456.449219 168.644531 456.710938 C 168.59375 456.972656 168.515625 457.226562 168.414062 457.472656 C 168.3125 457.71875 168.1875 457.953125 168.039062 458.171875 C 167.890625 458.394531 167.722656 458.601562 167.535156 458.789062 C 167.347656 458.976562 167.140625 459.144531 166.921875 459.292969 C 166.699219 459.441406 166.464844 459.566406 166.21875 459.667969 C 165.972656 459.769531 165.71875 459.847656 165.457031 459.898438 C 165.195312 459.953125 164.933594 459.976562 164.664062 459.976562 C 164.398438 459.976562 164.136719 459.953125 163.875 459.898438 C 163.613281 459.847656 163.359375 459.769531 163.113281 459.667969 C 162.867188 459.566406 162.632812 459.441406 162.410156 459.292969 C 162.191406 459.144531 161.984375 458.976562 161.796875 458.789062 C 161.609375 458.601562 161.441406 458.394531 161.292969 458.171875 C 161.144531 457.953125 161.019531 457.71875 160.917969 457.472656 C 160.816406 457.226562 160.738281 456.972656 160.6875 456.710938 C 160.632812 456.449219 160.609375 456.183594 160.609375 455.917969 L 160.609375 375.710938 C 160.609375 375.445312 160.632812 375.179688 160.6875 374.917969 C 160.738281 374.65625 160.816406 374.402344 160.917969 374.15625 C 161.019531 373.910156 161.144531 373.675781 161.292969 373.457031 C 161.441406 373.234375 161.609375 373.027344 161.796875 372.839844 C 161.984375 372.652344 162.191406 372.484375 162.410156 372.335938 C 162.632812 372.1875 162.867188 372.0625 163.113281 371.960938 C 163.359375 371.859375 163.613281 371.78125 163.875 371.730469 C 164.136719 371.679688 164.398438 371.652344 164.664062 371.652344 Z M 164.664062 371.652344 " fill-opacity="1" fill-rule="nonzero"/><path fill="#933200" d="M 232.386719 103.300781 L 232.25 103.300781 L 172.207031 100.410156 C 171.882812 100.394531 171.570312 100.324219 171.273438 100.203125 C 170.972656 100.082031 170.703125 99.914062 170.460938 99.699219 C 170.21875 99.484375 170.019531 99.234375 169.863281 98.953125 C 169.707031 98.671875 169.601562 98.371094 169.546875 98.054688 C 169.375 97.039062 169.121094 96.046875 168.792969 95.074219 C 168.464844 94.101562 168.0625 93.15625 167.585938 92.246094 C 167.113281 91.335938 166.566406 90.46875 165.957031 89.644531 C 165.34375 88.816406 164.671875 88.042969 163.9375 87.324219 C 163.207031 86.605469 162.421875 85.945312 161.585938 85.347656 C 160.75 84.75 159.875 84.21875 158.953125 83.761719 C 158.035156 83.300781 157.085938 82.914062 156.109375 82.601562 C 155.128906 82.289062 154.132812 82.054688 153.117188 81.898438 C 152.101562 81.746094 151.078125 81.667969 150.050781 81.671875 C 149.023438 81.675781 148.003906 81.761719 146.988281 81.925781 C 145.972656 82.085938 144.980469 82.328125 144.003906 82.648438 C 143.027344 82.96875 142.078125 83.363281 141.164062 83.828125 C 140.25 84.296875 139.375 84.832031 138.546875 85.4375 C 137.714844 86.042969 136.933594 86.707031 136.207031 87.433594 C 135.480469 88.160156 134.816406 88.9375 134.210938 89.765625 C 133.605469 90.597656 133.066406 91.46875 132.597656 92.382812 C 132.441406 92.691406 132.234375 92.960938 131.980469 93.191406 C 131.722656 93.425781 131.433594 93.605469 131.113281 93.730469 C 130.792969 93.855469 130.460938 93.921875 130.113281 93.925781 C 129.769531 93.933594 129.433594 93.875 129.109375 93.757812 L 73.269531 73.519531 C 73.078125 73.449219 72.898438 73.363281 72.726562 73.253906 C 72.554688 73.144531 72.394531 73.019531 72.25 72.878906 C 72.105469 72.738281 71.976562 72.582031 71.867188 72.410156 C 71.753906 72.242188 71.660156 72.0625 71.589844 71.871094 C 71.515625 71.683594 71.464844 71.488281 71.433594 71.285156 C 71.402344 71.085938 71.394531 70.882812 71.40625 70.683594 C 71.417969 70.480469 71.453125 70.28125 71.507812 70.085938 C 71.5625 69.890625 71.636719 69.703125 71.734375 69.523438 C 73.292969 66.605469 74.074219 63.492188 74.082031 60.1875 C 74.097656 57.40625 73.53125 54.75 72.382812 52.214844 C 72.21875 51.859375 72.132812 51.488281 72.125 51.101562 C 72.117188 50.710938 72.1875 50.335938 72.332031 49.972656 C 72.476562 49.613281 72.691406 49.296875 72.96875 49.019531 C 73.242188 48.746094 73.5625 48.539062 73.925781 48.398438 L 126.710938 27.726562 C 126.914062 27.648438 127.121094 27.59375 127.335938 27.5625 C 127.546875 27.53125 127.761719 27.523438 127.980469 27.542969 C 128.195312 27.5625 128.40625 27.601562 128.613281 27.667969 C 128.816406 27.734375 129.011719 27.824219 129.199219 27.9375 C 129.382812 28.046875 129.554688 28.175781 129.710938 28.328125 C 129.867188 28.476562 130.003906 28.644531 130.121094 28.824219 C 130.238281 29.007812 130.335938 29.199219 130.410156 29.402344 C 130.480469 29.605469 130.53125 29.816406 130.558594 30.03125 C 130.6875 31.105469 130.90625 32.164062 131.207031 33.203125 C 131.511719 34.242188 131.902344 35.25 132.371094 36.226562 C 132.84375 37.199219 133.390625 38.128906 134.015625 39.015625 C 134.636719 39.902344 135.332031 40.730469 136.09375 41.5 C 136.851562 42.269531 137.671875 42.972656 138.550781 43.609375 C 139.425781 44.242188 140.351562 44.804688 141.320312 45.285156 C 142.289062 45.769531 143.292969 46.167969 144.328125 46.484375 C 145.363281 46.804688 146.417969 47.035156 147.492188 47.175781 C 148.566406 47.320312 149.644531 47.375 150.726562 47.339844 C 151.808594 47.304688 152.878906 47.179688 153.941406 46.96875 C 155.003906 46.757812 156.042969 46.457031 157.054688 46.074219 C 158.070312 45.691406 159.042969 45.226562 159.980469 44.683594 C 160.917969 44.140625 161.800781 43.519531 162.636719 42.832031 C 163.46875 42.140625 164.242188 41.386719 164.953125 40.566406 C 165.660156 39.75 166.300781 38.878906 166.867188 37.953125 C 167.433594 37.03125 167.917969 36.066406 168.324219 35.0625 C 168.40625 34.859375 168.511719 34.664062 168.640625 34.484375 C 168.769531 34.300781 168.914062 34.136719 169.082031 33.992188 C 169.25 33.84375 169.429688 33.71875 169.625 33.613281 C 169.820312 33.511719 170.027344 33.429688 170.242188 33.375 C 170.457031 33.320312 170.675781 33.289062 170.894531 33.285156 C 171.117188 33.277344 171.335938 33.300781 171.554688 33.347656 C 171.769531 33.394531 171.980469 33.464844 172.179688 33.558594 C 172.378906 33.65625 172.566406 33.773438 172.738281 33.914062 L 237.863281 86.421875 C 238.136719 86.644531 238.359375 86.90625 238.535156 87.210938 C 238.710938 87.515625 238.828125 87.84375 238.882812 88.191406 C 238.9375 88.539062 238.925781 88.886719 238.851562 89.230469 C 238.777344 89.574219 238.640625 89.894531 238.449219 90.1875 C 237.433594 91.722656 236.652344 93.367188 236.101562 95.125 C 235.554688 96.878906 235.257812 98.679688 235.21875 100.519531 C 235.210938 100.890625 235.136719 101.246094 234.988281 101.585938 C 234.839844 101.925781 234.636719 102.226562 234.371094 102.488281 C 234.105469 102.746094 233.800781 102.945312 233.457031 103.085938 C 233.113281 103.226562 232.757812 103.296875 232.386719 103.296875 Z M 174.636719 94.851562 L 229.78125 97.503906 C 230.179688 94.621094 231.054688 91.886719 232.402344 89.308594 L 171.9375 40.554688 C 171.308594 41.625 170.601562 42.640625 169.820312 43.605469 C 169.042969 44.570312 168.195312 45.476562 167.28125 46.316406 C 166.367188 47.15625 165.398438 47.929688 164.371094 48.625 C 163.347656 49.324219 162.273438 49.945312 161.15625 50.488281 C 160.039062 51.027344 158.890625 51.484375 157.703125 51.859375 C 156.519531 52.230469 155.316406 52.511719 154.089844 52.707031 C 152.863281 52.902344 151.628906 53.007812 150.386719 53.023438 C 149.144531 53.035156 147.910156 52.960938 146.679688 52.792969 C 145.449219 52.625 144.238281 52.367188 143.046875 52.023438 C 141.851562 51.679688 140.691406 51.246094 139.5625 50.730469 C 138.433594 50.214844 137.347656 49.621094 136.304688 48.945312 C 135.265625 48.269531 134.277344 47.519531 133.347656 46.699219 C 132.414062 45.878906 131.546875 44.996094 130.746094 44.050781 C 129.941406 43.101562 129.214844 42.101562 128.558594 41.046875 C 127.902344 39.992188 127.328125 38.894531 126.835938 37.753906 C 126.339844 36.617188 125.933594 35.445312 125.613281 34.246094 L 78.582031 52.636719 C 79.355469 55.089844 79.738281 57.601562 79.730469 60.171875 C 79.726562 63.289062 79.167969 66.304688 78.0625 69.21875 L 128.800781 87.605469 C 129.464844 86.578125 130.195312 85.605469 131 84.683594 C 131.804688 83.761719 132.671875 82.902344 133.597656 82.105469 C 134.527344 81.3125 135.507812 80.585938 136.539062 79.933594 C 137.570312 79.277344 138.644531 78.703125 139.761719 78.203125 C 140.878906 77.703125 142.023438 77.289062 143.199219 76.953125 C 144.375 76.621094 145.570312 76.375 146.78125 76.214844 C 147.992188 76.054688 149.210938 75.980469 150.433594 75.996094 C 151.65625 76.011719 152.871094 76.113281 154.078125 76.304688 C 155.285156 76.496094 156.472656 76.773438 157.640625 77.132812 C 158.808594 77.496094 159.941406 77.941406 161.046875 78.46875 C 162.148438 78.996094 163.207031 79.597656 164.226562 80.277344 C 165.242188 80.957031 166.203125 81.707031 167.109375 82.523438 C 168.019531 83.34375 168.863281 84.222656 169.644531 85.164062 C 170.421875 86.105469 171.132812 87.097656 171.769531 88.140625 C 172.40625 89.183594 172.964844 90.265625 173.445312 91.390625 C 173.925781 92.515625 174.324219 93.667969 174.636719 94.851562 Z M 174.636719 94.851562 " fill-opacity="1" fill-rule="nonzero"/><path fill="#933200" d="M 232.800781 180.910156 L 172.449219 180.910156 C 172.246094 180.910156 172.042969 180.886719 171.84375 180.84375 C 171.640625 180.796875 171.449219 180.734375 171.261719 180.648438 C 171.078125 180.5625 170.902344 180.457031 170.738281 180.332031 C 170.578125 180.210938 170.429688 180.070312 170.296875 179.914062 C 170.164062 179.757812 170.046875 179.589844 169.953125 179.410156 C 169.855469 179.230469 169.777344 179.042969 169.722656 178.84375 C 169.667969 178.648438 169.632812 178.445312 169.621094 178.242188 C 169.609375 178.039062 169.621094 177.835938 169.652344 177.632812 C 169.773438 176.820312 169.828125 176.003906 169.824219 175.183594 C 169.828125 171.535156 168.871094 168.15625 166.964844 165.042969 C 166.46875 164.214844 165.917969 163.425781 165.308594 162.679688 C 164.699219 161.933594 164.035156 161.234375 163.324219 160.585938 C 162.609375 159.933594 161.851562 159.339844 161.050781 158.800781 C 160.253906 158.265625 159.417969 157.785156 158.546875 157.371094 C 157.675781 156.957031 156.777344 156.605469 155.855469 156.324219 C 154.933594 156.039062 153.996094 155.828125 153.042969 155.683594 C 152.089844 155.535156 151.128906 155.460938 150.164062 155.457031 C 149.199219 155.453125 148.238281 155.523438 147.285156 155.660156 C 146.328125 155.796875 145.390625 156.003906 144.464844 156.28125 C 143.542969 156.554688 142.640625 156.898438 141.769531 157.308594 C 140.894531 157.714844 140.054688 158.1875 139.25 158.71875 C 138.445312 159.25 137.683594 159.839844 136.964844 160.480469 C 136.246094 161.125 135.582031 161.820312 134.964844 162.5625 C 134.347656 163.304688 133.789062 164.089844 133.289062 164.914062 C 132.789062 165.738281 132.351562 166.59375 131.976562 167.484375 C 131.605469 168.375 131.296875 169.285156 131.054688 170.21875 C 131.007812 170.414062 130.9375 170.601562 130.847656 170.78125 C 130.757812 170.960938 130.652344 171.132812 130.527344 171.289062 C 130.402344 171.445312 130.261719 171.585938 130.105469 171.714844 C 129.949219 171.84375 129.78125 171.953125 129.605469 172.042969 C 129.425781 172.136719 129.238281 172.207031 129.042969 172.261719 C 128.851562 172.3125 128.652344 172.34375 128.453125 172.351562 C 128.25 172.363281 128.050781 172.351562 127.855469 172.320312 C 127.65625 172.289062 127.460938 172.234375 127.273438 172.160156 L 72.996094 150.878906 C 72.808594 150.804688 72.628906 150.710938 72.460938 150.601562 C 72.292969 150.488281 72.140625 150.359375 72 150.214844 C 71.859375 150.070312 71.734375 149.910156 71.628906 149.738281 C 71.519531 149.566406 71.433594 149.386719 71.367188 149.195312 C 71.296875 149.003906 71.25 148.808594 71.226562 148.609375 C 71.199219 148.40625 71.195312 148.207031 71.210938 148.003906 C 71.226562 147.804688 71.265625 147.605469 71.324219 147.414062 C 71.382812 147.21875 71.464844 147.035156 71.5625 146.859375 C 73.222656 143.890625 74.054688 140.703125 74.058594 137.300781 C 74.070312 134.265625 73.394531 131.390625 72.035156 128.675781 C 71.859375 128.320312 71.761719 127.949219 71.742188 127.554688 C 71.722656 127.160156 71.78125 126.78125 71.917969 126.410156 C 72.058594 126.042969 72.265625 125.714844 72.539062 125.433594 C 72.8125 125.152344 73.132812 124.933594 73.5 124.785156 L 126.878906 102.960938 C 127.074219 102.878906 127.273438 102.824219 127.480469 102.789062 C 127.6875 102.753906 127.898438 102.742188 128.105469 102.753906 C 128.316406 102.765625 128.523438 102.800781 128.726562 102.855469 C 128.929688 102.914062 129.121094 102.992188 129.304688 103.09375 C 129.492188 103.195312 129.660156 103.3125 129.820312 103.453125 C 129.976562 103.589844 130.117188 103.746094 130.242188 103.914062 C 130.367188 104.085938 130.46875 104.265625 130.554688 104.460938 C 130.636719 104.652344 130.699219 104.851562 130.734375 105.058594 C 130.925781 106.0625 131.191406 107.046875 131.53125 108.007812 C 131.875 108.96875 132.289062 109.902344 132.773438 110.796875 C 133.261719 111.695312 133.8125 112.550781 134.433594 113.363281 C 135.050781 114.175781 135.730469 114.933594 136.46875 115.640625 C 137.207031 116.34375 137.992188 116.992188 138.832031 117.574219 C 139.667969 118.15625 140.546875 118.671875 141.464844 119.121094 C 142.382812 119.566406 143.328125 119.941406 144.304688 120.238281 C 145.28125 120.539062 146.273438 120.761719 147.285156 120.90625 C 148.296875 121.050781 149.3125 121.117188 150.332031 121.105469 C 151.355469 121.09375 152.367188 121 153.375 120.828125 C 154.382812 120.660156 155.367188 120.410156 156.335938 120.085938 C 157.304688 119.761719 158.242188 119.363281 159.148438 118.894531 C 160.054688 118.425781 160.917969 117.886719 161.742188 117.28125 C 162.566406 116.679688 163.335938 116.011719 164.054688 115.289062 C 164.773438 114.5625 165.433594 113.789062 166.03125 112.960938 C 166.628906 112.132812 167.160156 111.265625 167.625 110.355469 C 167.71875 110.171875 167.832031 109.996094 167.960938 109.835938 C 168.09375 109.675781 168.242188 109.535156 168.402344 109.40625 C 168.566406 109.277344 168.742188 109.167969 168.929688 109.078125 C 169.117188 108.992188 169.308594 108.921875 169.511719 108.875 C 169.714844 108.828125 169.917969 108.804688 170.125 108.800781 C 170.332031 108.800781 170.535156 108.820312 170.738281 108.863281 C 170.941406 108.90625 171.136719 108.96875 171.324219 109.054688 C 171.515625 109.140625 171.691406 109.246094 171.855469 109.371094 L 237.726562 158.988281 C 238.011719 159.203125 238.25 159.464844 238.4375 159.769531 C 238.625 160.078125 238.75 160.410156 238.8125 160.761719 C 238.875 161.117188 238.867188 161.46875 238.796875 161.824219 C 238.722656 162.175781 238.589844 162.5 238.390625 162.800781 C 237.34375 164.402344 236.546875 166.121094 236 167.953125 C 235.457031 169.785156 235.183594 171.660156 235.1875 173.574219 C 235.1875 174.910156 235.316406 176.230469 235.578125 177.542969 C 235.621094 177.746094 235.640625 177.957031 235.636719 178.164062 C 235.632812 178.375 235.605469 178.582031 235.554688 178.785156 C 235.503906 178.992188 235.433594 179.1875 235.339844 179.375 C 235.246094 179.5625 235.132812 179.738281 235 179.902344 C 234.867188 180.0625 234.714844 180.210938 234.550781 180.339844 C 234.386719 180.46875 234.207031 180.578125 234.015625 180.667969 C 233.828125 180.757812 233.628906 180.828125 233.425781 180.875 C 233.21875 180.921875 233.011719 180.941406 232.800781 180.941406 Z M 175.492188 175.238281 L 229.578125 175.238281 C 229.539062 174.671875 229.523438 174.105469 229.519531 173.539062 C 229.515625 169.460938 230.445312 165.609375 232.304688 161.984375 L 170.976562 115.8125 C 170.3125 116.777344 169.582031 117.691406 168.789062 118.558594 C 168 119.421875 167.148438 120.230469 166.246094 120.976562 C 165.339844 121.722656 164.390625 122.40625 163.390625 123.019531 C 162.390625 123.636719 161.355469 124.179688 160.28125 124.648438 C 159.207031 125.121094 158.105469 125.515625 156.976562 125.835938 C 155.847656 126.152344 154.699219 126.390625 153.539062 126.550781 C 152.375 126.710938 151.207031 126.789062 150.035156 126.785156 C 148.859375 126.785156 147.695312 126.699219 146.53125 126.535156 C 145.371094 126.371094 144.226562 126.128906 143.097656 125.804688 C 141.96875 125.480469 140.871094 125.082031 139.796875 124.605469 C 138.726562 124.128906 137.691406 123.582031 136.695312 122.960938 C 135.699219 122.339844 134.75 121.65625 133.847656 120.90625 C 132.949219 120.152344 132.101562 119.34375 131.316406 118.476562 C 130.527344 117.605469 129.800781 116.6875 129.140625 115.71875 C 128.476562 114.75 127.886719 113.738281 127.367188 112.6875 C 126.84375 111.636719 126.398438 110.554688 126.027344 109.441406 L 78.300781 128.941406 C 79.320312 131.828125 79.792969 134.800781 79.726562 137.859375 C 79.65625 140.921875 79.050781 143.871094 77.902344 146.707031 L 126.542969 165.789062 C 126.976562 164.695312 127.484375 163.636719 128.0625 162.617188 C 128.644531 161.59375 129.292969 160.617188 130.007812 159.683594 C 130.726562 158.75 131.503906 157.871094 132.339844 157.046875 C 133.179688 156.222656 134.070312 155.460938 135.015625 154.761719 C 135.960938 154.0625 136.949219 153.429688 137.984375 152.871094 C 139.015625 152.308594 140.082031 151.820312 141.183594 151.40625 C 142.285156 150.992188 143.410156 150.65625 144.554688 150.398438 C 145.703125 150.144531 146.863281 149.96875 148.035156 149.871094 C 149.207031 149.777344 150.378906 149.761719 151.554688 149.832031 C 152.726562 149.898438 153.890625 150.046875 155.042969 150.277344 C 156.199219 150.507812 157.328125 150.816406 158.4375 151.203125 C 159.550781 151.59375 160.628906 152.054688 161.671875 152.59375 C 162.71875 153.128906 163.722656 153.738281 164.683594 154.414062 C 165.644531 155.09375 166.554688 155.835938 167.410156 156.640625 C 168.269531 157.441406 169.066406 158.304688 169.804688 159.21875 C 170.542969 160.132812 171.214844 161.097656 171.816406 162.105469 C 173.023438 164.070312 173.9375 166.164062 174.5625 168.386719 C 175.191406 170.605469 175.503906 172.871094 175.503906 175.175781 Z M 175.492188 175.238281 " fill-opacity="1" fill-rule="nonzero"/><path fill="#933200" d="M 128.90625 244.152344 C 128.574219 244.152344 128.253906 244.097656 127.941406 243.984375 L 72.683594 224.046875 C 72.332031 223.917969 72.015625 223.726562 71.738281 223.472656 C 71.460938 223.21875 71.242188 222.921875 71.082031 222.582031 C 70.925781 222.242188 70.835938 221.882812 70.820312 221.507812 C 70.800781 221.132812 70.855469 220.769531 70.984375 220.414062 C 71.113281 220.0625 71.304688 219.746094 71.554688 219.46875 C 71.808594 219.191406 72.105469 218.972656 72.445312 218.8125 C 72.785156 218.652344 73.144531 218.566406 73.519531 218.546875 C 73.894531 218.53125 74.257812 218.585938 74.613281 218.714844 L 129.867188 238.652344 C 130.183594 238.769531 130.464844 238.929688 130.722656 239.144531 C 130.976562 239.359375 131.1875 239.609375 131.355469 239.898438 C 131.523438 240.1875 131.632812 240.496094 131.691406 240.824219 C 131.75 241.152344 131.75 241.480469 131.695312 241.808594 C 131.636719 242.136719 131.523438 242.445312 131.359375 242.734375 C 131.191406 243.023438 130.980469 243.273438 130.726562 243.488281 C 130.472656 243.703125 130.1875 243.867188 129.875 243.980469 C 129.5625 244.09375 129.238281 244.152344 128.90625 244.152344 Z M 128.90625 244.152344 " fill-opacity="1" fill-rule="nonzero"/><path fill="#933200" d="M 168.933594 239.445312 C 168.628906 239.445312 168.332031 239.398438 168.042969 239.300781 C 167.75 239.207031 167.484375 239.066406 167.238281 238.886719 C 166.992188 238.703125 166.78125 238.488281 166.609375 238.238281 C 166.433594 237.984375 166.300781 237.714844 166.214844 237.421875 C 166.125 237.128906 166.085938 236.832031 166.097656 236.523438 C 166.105469 236.21875 166.164062 235.921875 166.265625 235.636719 C 166.371094 235.351562 166.519531 235.085938 166.710938 234.847656 C 166.898438 234.609375 167.121094 234.40625 167.378906 234.238281 L 238.222656 187.863281 C 238.539062 187.65625 238.882812 187.519531 239.25 187.449219 C 239.621094 187.378906 239.988281 187.382812 240.355469 187.460938 C 240.726562 187.535156 241.0625 187.679688 241.375 187.894531 C 241.683594 188.105469 241.941406 188.367188 242.148438 188.683594 C 242.355469 188.996094 242.492188 189.339844 242.5625 189.707031 C 242.632812 190.078125 242.628906 190.445312 242.550781 190.816406 C 242.472656 191.183594 242.332031 191.523438 242.117188 191.832031 C 241.90625 192.144531 241.644531 192.402344 241.328125 192.605469 L 170.484375 238.984375 C 170.015625 239.289062 169.496094 239.445312 168.933594 239.445312 Z M 168.933594 239.445312 " fill-opacity="1" fill-rule="nonzero"/><path fill="#933200" d="M 75.855469 205.828125 C 75.515625 205.828125 75.191406 205.769531 74.875 205.65625 C 74.558594 205.539062 74.269531 205.371094 74.011719 205.15625 C 73.757812 204.9375 73.542969 204.679688 73.378906 204.386719 C 73.214844 204.09375 73.101562 203.78125 73.046875 203.449219 C 72.996094 203.117188 73 202.785156 73.0625 202.453125 C 73.128906 202.125 73.246094 201.8125 73.421875 201.527344 C 73.59375 201.238281 73.816406 200.988281 74.078125 200.777344 C 74.339844 200.566406 74.632812 200.410156 74.953125 200.304688 L 128.867188 182.214844 C 129.222656 182.09375 129.589844 182.046875 129.964844 182.070312 C 130.339844 182.097656 130.699219 182.191406 131.035156 182.359375 C 131.375 182.527344 131.667969 182.753906 131.914062 183.039062 C 132.160156 183.324219 132.34375 183.644531 132.464844 184 C 132.585938 184.359375 132.632812 184.726562 132.605469 185.101562 C 132.578125 185.476562 132.480469 185.835938 132.3125 186.171875 C 132.144531 186.507812 131.917969 186.800781 131.632812 187.046875 C 131.351562 187.296875 131.027344 187.480469 130.671875 187.597656 L 76.757812 205.691406 C 76.464844 205.785156 76.164062 205.832031 75.855469 205.828125 Z M 75.855469 205.828125 " fill-opacity="1" fill-rule="nonzero"/><path fill="#933200" d="M 169.371094 166.394531 C 169.074219 166.394531 168.785156 166.351562 168.5 166.257812 C 168.21875 166.167969 167.953125 166.035156 167.714844 165.859375 C 167.472656 165.6875 167.261719 165.480469 167.085938 165.242188 C 166.910156 165 166.777344 164.738281 166.683594 164.457031 C 166.585938 164.175781 166.539062 163.886719 166.535156 163.589844 C 166.535156 163.292969 166.578125 163 166.664062 162.714844 C 166.753906 162.433594 166.882812 162.167969 167.054688 161.925781 C 167.226562 161.683594 167.433594 161.472656 167.671875 161.292969 L 234.308594 111.101562 C 234.609375 110.875 234.941406 110.714844 235.308594 110.621094 C 235.671875 110.527344 236.039062 110.507812 236.414062 110.5625 C 236.785156 110.613281 237.132812 110.738281 237.457031 110.929688 C 237.78125 111.121094 238.058594 111.367188 238.28125 111.667969 C 238.507812 111.96875 238.667969 112.300781 238.761719 112.664062 C 238.855469 113.03125 238.875 113.398438 238.820312 113.769531 C 238.765625 114.144531 238.644531 114.492188 238.453125 114.816406 C 238.261719 115.136719 238.011719 115.414062 237.710938 115.636719 L 171.085938 165.824219 C 170.578125 166.207031 170.007812 166.398438 169.371094 166.394531 Z M 169.371094 166.394531 " fill-opacity="1" fill-rule="nonzero"/><path fill="#933200" d="M 125.179688 106.121094 C 124.882812 104.558594 124.734375 102.980469 124.726562 101.390625 C 124.714844 97.28125 125.660156 93.40625 127.5625 89.765625 C 128.164062 88.589844 128.859375 87.46875 129.636719 86.398438 C 130.417969 85.332031 131.277344 84.328125 132.214844 83.394531 C 133.152344 82.460938 134.15625 81.605469 135.226562 80.828125 C 136.296875 80.050781 137.421875 79.359375 138.597656 78.757812 C 139.777344 78.160156 140.996094 77.652344 142.253906 77.242188 C 143.511719 76.832031 144.792969 76.523438 146.101562 76.3125 C 147.40625 76.101562 148.722656 75.996094 150.042969 75.992188 C 151.367188 75.988281 152.683594 76.085938 153.992188 76.289062 C 155.296875 76.488281 156.582031 76.792969 157.84375 77.195312 C 159.101562 77.597656 160.324219 78.097656 161.507812 78.691406 C 162.6875 79.285156 163.816406 79.964844 164.894531 80.738281 C 165.96875 81.507812 166.976562 82.355469 167.921875 83.285156 C 168.863281 84.214844 169.726562 85.210938 170.515625 86.273438 C 171.300781 87.339844 172 88.457031 172.609375 89.628906 C 173.222656 90.804688 173.738281 92.015625 174.160156 93.269531 C 174.582031 94.523438 174.902344 95.804688 175.125 97.109375 C 175.277344 98.015625 175.378906 98.929688 175.433594 99.847656 C 175.484375 100.769531 175.488281 101.6875 175.441406 102.605469 C 175.394531 103.527344 175.296875 104.441406 175.152344 105.347656 C 175.007812 106.257812 174.8125 107.15625 174.570312 108.042969 C 174.324219 108.933594 174.035156 109.804688 173.699219 110.660156 C 173.359375 111.515625 172.976562 112.351562 172.546875 113.167969 C 172.121094 113.980469 171.648438 114.769531 171.132812 115.535156 C 170.621094 116.296875 170.066406 117.03125 169.472656 117.734375 C 168.878906 118.4375 168.25 119.109375 167.585938 119.746094 C 166.917969 120.378906 166.21875 120.976562 165.488281 121.535156 C 164.757812 122.097656 164 122.613281 163.210938 123.09375 C 162.425781 123.570312 161.613281 124.003906 160.78125 124.394531 C 159.945312 124.78125 159.09375 125.125 158.222656 125.421875 C 157.351562 125.71875 156.46875 125.96875 155.570312 126.171875 C 154.671875 126.371094 153.765625 126.523438 152.847656 126.625 C 151.933594 126.730469 151.015625 126.78125 150.097656 126.785156 C 148.628906 126.785156 147.175781 126.660156 145.730469 126.40625 C 144.285156 126.152344 142.875 125.777344 141.496094 125.28125 C 140.117188 124.78125 138.789062 124.167969 137.515625 123.441406 C 136.242188 122.714844 135.042969 121.882812 133.914062 120.945312 C 132.785156 120.007812 131.746094 118.984375 130.792969 117.867188 C 129.84375 116.75 128.996094 115.558594 128.253906 114.296875 C 127.507812 113.035156 126.878906 111.714844 126.363281 110.34375 C 125.847656 108.96875 125.453125 107.5625 125.179688 106.121094 Z M 125.179688 106.121094 " fill-opacity="1" fill-rule="nonzero"/><path fill="#933200" d="M 171.808594 162.105469 C 173.015625 164.070312 173.929688 166.164062 174.558594 168.382812 C 175.183594 170.601562 175.496094 172.867188 175.492188 175.171875 C 175.5 176.292969 175.414062 177.410156 175.238281 178.515625 C 175.132812 179.304688 174.988281 180.085938 174.808594 180.859375 C 174.628906 181.632812 174.414062 182.398438 174.164062 183.152344 C 173.914062 183.90625 173.625 184.648438 173.304688 185.375 C 172.984375 186.101562 172.628906 186.8125 172.242188 187.507812 C 171.855469 188.203125 171.433594 188.875 170.984375 189.53125 C 170.53125 190.183594 170.050781 190.816406 169.539062 191.425781 C 169.03125 192.035156 168.492188 192.621094 167.925781 193.179688 C 167.359375 193.738281 166.769531 194.269531 166.15625 194.773438 C 165.539062 195.273438 164.902344 195.75 164.242188 196.191406 C 163.582031 196.636719 162.902344 197.046875 162.203125 197.425781 C 161.503906 197.804688 160.789062 198.152344 160.058594 198.464844 C 159.328125 198.777344 158.585938 199.054688 157.828125 199.296875 C 157.070312 199.539062 156.304688 199.742188 155.527344 199.914062 C 154.75 200.082031 153.964844 200.21875 153.175781 200.3125 C 152.386719 200.410156 151.597656 200.46875 150.800781 200.492188 C 150.007812 200.515625 149.214844 200.5 148.417969 200.445312 C 147.625 200.394531 146.835938 200.304688 146.050781 200.175781 C 145.269531 200.050781 144.492188 199.886719 143.722656 199.6875 C 142.953125 199.488281 142.191406 199.253906 141.445312 198.980469 C 140.699219 198.710938 139.964844 198.40625 139.246094 198.066406 C 138.527344 197.726562 137.828125 197.351562 137.144531 196.945312 C 136.460938 196.539062 135.796875 196.101562 135.15625 195.632812 C 134.511719 195.167969 133.894531 194.667969 133.296875 194.140625 C 132.703125 193.617188 132.132812 193.0625 131.585938 192.484375 C 131.042969 191.902344 130.527344 191.296875 130.042969 190.671875 C 129.554688 190.042969 129.097656 189.390625 128.671875 188.71875 C 128.246094 188.050781 127.855469 187.359375 127.492188 186.652344 C 127.132812 185.941406 126.804688 185.21875 126.511719 184.480469 C 126.21875 183.742188 125.960938 182.988281 125.738281 182.226562 C 125.515625 181.460938 125.332031 180.691406 125.179688 179.910156 C 125.03125 179.128906 124.917969 178.34375 124.84375 177.550781 C 124.765625 176.761719 124.726562 175.96875 124.726562 175.171875 C 124.714844 172.996094 125 170.863281 125.578125 168.765625 C 125.886719 167.5625 126.285156 166.390625 126.765625 165.246094 C 127.25 164.101562 127.8125 163 128.457031 161.9375 C 129.101562 160.878906 129.820312 159.871094 130.613281 158.914062 C 131.40625 157.960938 132.265625 157.066406 133.191406 156.238281 C 134.117188 155.410156 135.097656 154.652344 136.132812 153.96875 C 137.167969 153.285156 138.25 152.679688 139.375 152.152344 C 140.5 151.628906 141.65625 151.1875 142.847656 150.832031 C 144.035156 150.476562 145.246094 150.210938 146.472656 150.035156 C 147.703125 149.859375 148.9375 149.769531 150.179688 149.777344 C 151.421875 149.78125 152.65625 149.875 153.882812 150.0625 C 155.113281 150.25 156.320312 150.523438 157.503906 150.890625 C 158.691406 151.253906 159.847656 151.703125 160.96875 152.238281 C 162.089844 152.769531 163.164062 153.382812 164.195312 154.074219 C 165.226562 154.769531 166.199219 155.53125 167.117188 156.367188 C 168.035156 157.203125 168.890625 158.101562 169.675781 159.0625 C 170.460938 160.023438 171.171875 161.039062 171.808594 162.105469 Z M 171.808594 162.105469 " fill-opacity="1" fill-rule="nonzero"/><path fill="#933200" d="M 175.492188 27.632812 C 175.496094 30.957031 174.855469 34.152344 173.566406 37.214844 C 173.042969 38.507812 172.414062 39.75 171.683594 40.941406 C 170.957031 42.128906 170.132812 43.25 169.21875 44.304688 C 168.304688 45.359375 167.308594 46.332031 166.234375 47.21875 C 165.15625 48.109375 164.015625 48.902344 162.808594 49.605469 C 161.605469 50.304688 160.347656 50.902344 159.042969 51.394531 C 157.738281 51.890625 156.398438 52.273438 155.03125 52.542969 C 153.664062 52.816406 152.28125 52.976562 150.886719 53.019531 C 149.492188 53.0625 148.101562 52.992188 146.71875 52.808594 C 145.335938 52.621094 143.976562 52.324219 142.644531 51.914062 C 141.308594 51.503906 140.019531 50.988281 138.769531 50.363281 C 137.519531 49.742188 136.332031 49.019531 135.203125 48.199219 C 134.074219 47.382812 133.019531 46.472656 132.039062 45.480469 C 131.058594 44.488281 130.167969 43.417969 129.363281 42.277344 C 128.5625 41.136719 127.859375 39.9375 127.253906 38.679688 C 126.648438 37.421875 126.148438 36.125 125.757812 34.785156 C 125.367188 33.445312 125.089844 32.082031 124.925781 30.695312 C 124.800781 29.679688 124.734375 28.660156 124.726562 27.632812 C 124.726562 26.804688 124.769531 25.972656 124.847656 25.148438 C 124.929688 24.320312 125.050781 23.496094 125.214844 22.683594 C 125.378906 21.867188 125.578125 21.0625 125.820312 20.265625 C 126.0625 19.46875 126.339844 18.6875 126.660156 17.921875 C 126.976562 17.152344 127.332031 16.402344 127.722656 15.667969 C 128.117188 14.9375 128.542969 14.222656 129.003906 13.53125 C 129.464844 12.839844 129.960938 12.175781 130.488281 11.53125 C 131.015625 10.890625 131.574219 10.273438 132.160156 9.6875 C 132.75 9.097656 133.363281 8.539062 134.007812 8.011719 C 134.648438 7.484375 135.316406 6.992188 136.007812 6.527344 C 136.699219 6.066406 137.410156 5.640625 138.144531 5.25 C 138.878906 4.855469 139.628906 4.5 140.398438 4.183594 C 141.164062 3.867188 141.945312 3.585938 142.742188 3.34375 C 143.539062 3.101562 144.34375 2.902344 145.160156 2.738281 C 145.972656 2.578125 146.796875 2.453125 147.621094 2.375 C 148.449219 2.292969 149.277344 2.25 150.109375 2.25 C 150.941406 2.25 151.769531 2.292969 152.597656 2.375 C 153.425781 2.453125 154.246094 2.578125 155.0625 2.738281 C 155.878906 2.902344 156.683594 3.101562 157.480469 3.34375 C 158.273438 3.585938 159.054688 3.867188 159.824219 4.183594 C 160.59375 4.5 161.34375 4.855469 162.074219 5.25 C 162.808594 5.640625 163.519531 6.066406 164.210938 6.527344 C 164.902344 6.992188 165.570312 7.484375 166.214844 8.011719 C 166.855469 8.539062 167.472656 9.097656 168.058594 9.6875 C 168.648438 10.273438 169.203125 10.890625 169.730469 11.53125 C 170.257812 12.175781 170.753906 12.839844 171.214844 13.53125 C 171.675781 14.222656 172.105469 14.9375 172.496094 15.667969 C 172.886719 16.402344 173.242188 17.152344 173.5625 17.921875 C 173.878906 18.6875 174.160156 19.46875 174.402344 20.265625 C 174.640625 21.0625 174.84375 21.867188 175.003906 22.683594 C 175.167969 23.496094 175.289062 24.320312 175.371094 25.144531 C 175.453125 25.972656 175.492188 26.804688 175.492188 27.632812 Z M 175.492188 27.632812 " fill-opacity="1" fill-rule="nonzero"/><path fill="#933200" d="M 77.53125 49.886719 C 79.015625 53.15625 79.753906 56.585938 79.742188 60.175781 C 79.746094 60.695312 79.730469 61.214844 79.703125 61.730469 C 79.671875 62.25 79.625 62.769531 79.566406 63.285156 C 79.503906 63.800781 79.425781 64.3125 79.332031 64.824219 C 79.242188 65.335938 79.132812 65.84375 79.007812 66.347656 C 78.882812 66.851562 78.746094 67.351562 78.589844 67.847656 C 78.4375 68.34375 78.265625 68.835938 78.082031 69.320312 C 77.898438 69.808594 77.699219 70.289062 77.484375 70.761719 C 77.269531 71.234375 77.042969 71.699219 76.800781 72.160156 C 76.558594 72.621094 76.300781 73.070312 76.03125 73.515625 C 75.761719 73.960938 75.480469 74.394531 75.183594 74.820312 C 74.886719 75.25 74.578125 75.664062 74.253906 76.074219 C 73.933594 76.480469 73.597656 76.878906 73.253906 77.265625 C 72.90625 77.652344 72.546875 78.027344 72.179688 78.394531 C 71.808594 78.757812 71.429688 79.113281 71.039062 79.457031 C 70.648438 79.796875 70.246094 80.128906 69.835938 80.445312 C 69.425781 80.761719 69.003906 81.066406 68.574219 81.359375 C 68.144531 81.652344 67.707031 81.929688 67.257812 82.195312 C 66.8125 82.460938 66.359375 82.710938 65.894531 82.949219 C 65.433594 83.1875 64.964844 83.410156 64.488281 83.617188 C 64.011719 83.828125 63.53125 84.019531 63.042969 84.199219 C 62.554688 84.378906 62.0625 84.542969 61.566406 84.691406 C 61.066406 84.839844 60.566406 84.976562 60.058594 85.09375 C 59.554688 85.210938 59.046875 85.316406 58.53125 85.402344 C 58.019531 85.488281 57.507812 85.5625 56.988281 85.617188 C 56.472656 85.671875 55.957031 85.710938 55.4375 85.738281 C 54.917969 85.761719 54.398438 85.769531 53.878906 85.761719 C 53.359375 85.753906 52.839844 85.730469 52.324219 85.691406 C 51.804688 85.652344 51.289062 85.597656 50.773438 85.527344 C 50.257812 85.457031 49.746094 85.367188 49.238281 85.265625 C 48.726562 85.164062 48.222656 85.046875 47.71875 84.914062 C 47.21875 84.78125 46.71875 84.632812 46.226562 84.46875 C 45.734375 84.304688 45.246094 84.128906 44.765625 83.933594 C 44.28125 83.742188 43.804688 83.53125 43.335938 83.308594 C 42.867188 83.089844 42.40625 82.851562 41.949219 82.601562 C 41.496094 82.351562 41.046875 82.085938 40.609375 81.808594 C 40.167969 81.53125 39.738281 81.238281 39.316406 80.933594 C 38.898438 80.628906 38.484375 80.3125 38.085938 79.984375 C 37.683594 79.65625 37.289062 79.3125 36.910156 78.960938 C 36.527344 78.605469 36.160156 78.242188 35.800781 77.867188 C 35.441406 77.488281 35.09375 77.101562 34.761719 76.707031 C 34.425781 76.308594 34.101562 75.902344 33.792969 75.484375 C 33.484375 75.066406 33.1875 74.640625 32.902344 74.207031 C 32.617188 73.773438 32.347656 73.328125 32.089844 72.878906 C 31.832031 72.425781 31.589844 71.964844 31.363281 71.5 C 31.132812 71.035156 30.917969 70.5625 30.71875 70.082031 C 30.519531 69.601562 30.332031 69.117188 30.164062 68.625 C 29.992188 68.136719 29.839844 67.640625 29.699219 67.140625 C 29.558594 66.636719 29.433594 66.132812 29.324219 65.625 C 29.214844 65.117188 29.121094 64.609375 29.042969 64.09375 C 28.964844 63.582031 28.902344 63.066406 28.859375 62.546875 C 28.8125 62.03125 28.78125 61.511719 28.765625 60.992188 C 28.75 60.472656 28.753906 59.953125 28.769531 59.433594 C 28.785156 58.914062 28.820312 58.398438 28.867188 57.878906 C 28.917969 57.363281 28.980469 56.847656 29.0625 56.332031 C 29.140625 55.820312 29.238281 55.308594 29.347656 54.800781 C 29.460938 54.296875 29.585938 53.792969 29.730469 53.292969 C 29.871094 52.792969 30.027344 52.296875 30.203125 51.808594 C 30.375 51.316406 30.5625 50.832031 30.761719 50.355469 C 30.964844 49.875 31.183594 49.402344 31.414062 48.9375 C 31.644531 48.472656 31.890625 48.015625 32.148438 47.5625 C 32.40625 47.113281 32.679688 46.671875 32.964844 46.238281 C 33.25 45.804688 33.550781 45.378906 33.863281 44.964844 C 34.175781 44.546875 34.5 44.144531 34.835938 43.746094 C 35.171875 43.351562 35.519531 42.96875 35.878906 42.59375 C 36.242188 42.21875 36.613281 41.855469 36.996094 41.503906 C 37.378906 41.152344 37.769531 40.8125 38.171875 40.484375 C 38.578125 40.15625 38.988281 39.84375 39.410156 39.539062 C 39.835938 39.238281 40.265625 38.949219 40.707031 38.671875 C 41.144531 38.394531 41.59375 38.132812 42.050781 37.886719 C 42.507812 37.636719 42.96875 37.402344 43.441406 37.183594 C 43.910156 36.960938 44.386719 36.753906 44.871094 36.566406 C 45.355469 36.375 45.84375 36.199219 46.335938 36.035156 C 46.832031 35.875 47.328125 35.730469 47.832031 35.597656 C 48.335938 35.46875 48.839844 35.351562 49.351562 35.253906 C 49.859375 35.152344 50.371094 35.066406 50.886719 35 C 51.402344 34.929688 51.917969 34.878906 52.4375 34.839844 C 52.957031 34.804688 53.472656 34.785156 53.992188 34.777344 C 54.511719 34.773438 55.03125 34.785156 55.550781 34.808594 C 56.070312 34.835938 56.589844 34.878906 57.105469 34.9375 C 57.621094 34.996094 58.132812 35.070312 58.644531 35.160156 C 59.15625 35.25 59.667969 35.355469 60.171875 35.472656 C 60.675781 35.59375 61.179688 35.730469 61.675781 35.882812 C 62.171875 36.035156 62.664062 36.199219 63.152344 36.382812 C 63.636719 36.5625 64.117188 36.757812 64.59375 36.96875 C 65.070312 37.179688 65.535156 37.40625 65.996094 37.644531 C 66.457031 37.882812 66.914062 38.136719 67.359375 38.40625 C 67.804688 38.671875 68.242188 38.953125 68.667969 39.246094 C 69.097656 39.539062 69.515625 39.847656 69.925781 40.167969 C 70.335938 40.484375 70.734375 40.816406 71.125 41.160156 C 71.515625 41.503906 71.894531 41.859375 72.261719 42.226562 C 72.628906 42.59375 72.984375 42.972656 73.328125 43.363281 C 73.671875 43.75 74.007812 44.148438 74.324219 44.558594 C 74.644531 44.96875 74.953125 45.386719 75.25 45.816406 C 75.542969 46.242188 75.824219 46.679688 76.09375 47.125 C 76.359375 47.570312 76.613281 48.023438 76.855469 48.484375 C 77.09375 48.945312 77.320312 49.410156 77.53125 49.886719 Z M 77.53125 49.886719 " fill-opacity="1" fill-rule="nonzero"/><path fill="#933200" d="M 78.550781 202.128906 C 79.101562 203.847656 79.460938 205.601562 79.628906 207.398438 C 79.800781 209.191406 79.777344 210.984375 79.5625 212.773438 C 79.347656 214.5625 78.945312 216.3125 78.355469 218.015625 C 77.761719 219.71875 76.996094 221.339844 76.058594 222.878906 C 75.5625 223.695312 75.019531 224.484375 74.4375 225.242188 C 73.851562 226.003906 73.222656 226.726562 72.554688 227.414062 C 71.890625 228.097656 71.183594 228.746094 70.445312 229.355469 C 69.703125 229.960938 68.929688 230.527344 68.125 231.046875 C 67.320312 231.566406 66.488281 232.039062 65.632812 232.464844 C 64.773438 232.890625 63.894531 233.265625 62.992188 233.589844 C 62.09375 233.917969 61.175781 234.191406 60.242188 234.414062 C 59.3125 234.636719 58.371094 234.804688 57.417969 234.921875 C 56.46875 235.035156 55.515625 235.097656 54.554688 235.105469 C 53.597656 235.113281 52.644531 235.066406 51.691406 234.964844 C 50.738281 234.863281 49.792969 234.707031 48.859375 234.5 C 47.921875 234.292969 47.003906 234.03125 46.097656 233.71875 C 45.191406 233.410156 44.304688 233.046875 43.441406 232.632812 C 42.578125 232.222656 41.738281 231.761719 40.925781 231.253906 C 40.113281 230.746094 39.332031 230.195312 38.582031 229.597656 C 37.832031 229 37.117188 228.363281 36.441406 227.6875 C 35.761719 227.011719 35.125 226.296875 34.527344 225.546875 C 33.929688 224.800781 33.378906 224.019531 32.871094 223.207031 C 32.363281 222.394531 31.902344 221.558594 31.488281 220.691406 C 31.074219 219.828125 30.710938 218.945312 30.398438 218.039062 C 30.082031 217.132812 29.820312 216.214844 29.613281 215.277344 C 29.402344 214.34375 29.25 213.398438 29.144531 212.445312 C 29.042969 211.496094 28.996094 210.539062 29.003906 209.582031 C 29.007812 208.625 29.070312 207.667969 29.183594 206.71875 C 29.296875 205.765625 29.464844 204.824219 29.6875 203.894531 C 29.90625 202.960938 30.179688 202.042969 30.503906 201.140625 C 30.832031 200.242188 31.207031 199.363281 31.628906 198.503906 C 32.054688 197.644531 32.527344 196.8125 33.046875 196.007812 C 33.5625 195.203125 34.128906 194.429688 34.734375 193.6875 C 35.339844 192.945312 35.988281 192.238281 36.671875 191.570312 C 37.359375 190.902344 38.082031 190.277344 38.839844 189.691406 C 39.597656 189.105469 40.386719 188.5625 41.203125 188.066406 C 42.023438 187.566406 42.867188 187.117188 43.738281 186.71875 C 44.605469 186.316406 45.496094 185.964844 46.40625 185.664062 C 47.316406 185.363281 48.238281 185.117188 49.179688 184.917969 C 50.117188 184.722656 51.0625 184.582031 52.015625 184.492188 C 52.96875 184.402344 53.925781 184.371094 54.882812 184.390625 C 55.839844 184.410156 56.792969 184.484375 57.742188 184.609375 C 58.691406 184.738281 59.632812 184.917969 60.5625 185.152344 C 61.492188 185.386719 62.402344 185.671875 63.300781 186.011719 C 64.195312 186.347656 65.070312 186.734375 65.921875 187.171875 C 66.777344 187.609375 67.601562 188.09375 68.398438 188.621094 C 69.195312 189.152344 69.960938 189.726562 70.695312 190.34375 C 71.429688 190.960938 72.125 191.617188 72.78125 192.3125 C 73.441406 193.007812 74.058594 193.738281 74.632812 194.503906 C 75.210938 195.269531 75.738281 196.066406 76.226562 196.890625 C 76.710938 197.71875 77.148438 198.570312 77.539062 199.445312 C 77.925781 200.320312 78.265625 201.214844 78.550781 202.128906 Z M 78.550781 202.128906 " fill-opacity="1" fill-rule="nonzero"/><path fill="#933200" d="M 171.328125 235.066406 C 172.6875 237.125 173.722656 239.335938 174.433594 241.703125 C 175.144531 244.066406 175.496094 246.484375 175.492188 248.953125 C 175.496094 249.460938 175.480469 249.964844 175.453125 250.46875 C 175.425781 250.972656 175.378906 251.472656 175.320312 251.976562 C 175.265625 252.476562 175.191406 252.976562 175.101562 253.472656 C 175.015625 253.96875 174.910156 254.464844 174.792969 254.953125 C 174.675781 255.445312 174.542969 255.933594 174.398438 256.414062 C 174.25 256.898438 174.089844 257.375 173.914062 257.851562 C 173.742188 258.324219 173.550781 258.792969 173.347656 259.253906 C 173.148438 259.714844 172.929688 260.171875 172.699219 260.621094 C 172.472656 261.070312 172.226562 261.511719 171.972656 261.949219 C 171.714844 262.382812 171.445312 262.808594 171.164062 263.230469 C 170.882812 263.648438 170.589844 264.058594 170.285156 264.460938 C 169.980469 264.859375 169.660156 265.253906 169.332031 265.636719 C 169.003906 266.019531 168.664062 266.390625 168.3125 266.753906 C 167.960938 267.117188 167.597656 267.46875 167.226562 267.808594 C 166.855469 268.148438 166.472656 268.476562 166.078125 268.796875 C 165.6875 269.113281 165.289062 269.421875 164.878906 269.714844 C 164.46875 270.007812 164.050781 270.292969 163.621094 270.5625 C 163.195312 270.832031 162.761719 271.085938 162.320312 271.332031 C 161.875 271.574219 161.429688 271.804688 160.972656 272.019531 C 160.515625 272.238281 160.054688 272.441406 159.585938 272.632812 C 159.121094 272.820312 158.644531 272.996094 158.167969 273.15625 C 157.691406 273.320312 157.207031 273.464844 156.71875 273.597656 C 156.234375 273.730469 155.742188 273.847656 155.25 273.953125 C 154.753906 274.054688 154.257812 274.144531 153.757812 274.21875 C 153.257812 274.292969 152.757812 274.351562 152.253906 274.394531 C 151.753906 274.441406 151.25 274.46875 150.746094 274.484375 C 150.238281 274.5 149.734375 274.496094 149.230469 274.480469 C 148.726562 274.464844 148.222656 274.433594 147.71875 274.390625 C 147.21875 274.34375 146.71875 274.28125 146.21875 274.207031 C 145.71875 274.132812 145.222656 274.042969 144.730469 273.9375 C 144.234375 273.832031 143.746094 273.710938 143.257812 273.578125 C 142.773438 273.445312 142.289062 273.296875 141.8125 273.132812 C 141.335938 272.96875 140.863281 272.792969 140.394531 272.601562 C 139.925781 272.410156 139.464844 272.207031 139.011719 271.988281 C 138.554688 271.769531 138.109375 271.539062 137.667969 271.292969 C 137.226562 271.050781 136.792969 270.792969 136.367188 270.519531 C 135.9375 270.25 135.523438 269.96875 135.113281 269.671875 C 134.703125 269.375 134.304688 269.070312 133.914062 268.75 C 133.523438 268.429688 133.140625 268.097656 132.769531 267.757812 C 132.398438 267.414062 132.039062 267.0625 131.6875 266.699219 C 131.335938 266.335938 130.996094 265.960938 130.667969 265.578125 C 130.34375 265.195312 130.027344 264.800781 129.722656 264.398438 C 129.417969 263.996094 129.125 263.585938 128.84375 263.167969 C 128.5625 262.746094 128.296875 262.320312 128.039062 261.882812 C 127.785156 261.449219 127.542969 261.003906 127.316406 260.554688 C 127.085938 260.105469 126.871094 259.648438 126.671875 259.183594 C 126.46875 258.722656 126.28125 258.253906 126.109375 257.78125 C 125.933594 257.304688 125.777344 256.828125 125.632812 256.34375 C 125.484375 255.859375 125.355469 255.375 125.238281 254.882812 C 125.125 254.390625 125.023438 253.898438 124.933594 253.398438 C 124.847656 252.902344 124.777344 252.402344 124.71875 251.902344 C 124.664062 251.398438 124.621094 250.898438 124.59375 250.394531 C 124.566406 249.890625 124.554688 249.382812 124.558594 248.878906 C 124.558594 248.375 124.578125 247.871094 124.609375 247.367188 C 124.644531 246.863281 124.691406 246.363281 124.753906 245.859375 C 124.816406 245.359375 124.894531 244.863281 124.988281 244.363281 C 125.078125 243.867188 125.1875 243.375 125.308594 242.886719 C 125.429688 242.394531 125.566406 241.910156 125.714844 241.429688 C 125.867188 240.945312 126.03125 240.46875 126.210938 240 C 126.390625 239.527344 126.582031 239.058594 126.789062 238.597656 C 126.996094 238.140625 127.214844 237.683594 127.449219 237.238281 C 127.683594 236.789062 127.929688 236.351562 128.1875 235.917969 C 128.449219 235.484375 128.722656 235.058594 129.007812 234.644531 C 129.292969 234.226562 129.589844 233.820312 129.898438 233.421875 C 130.207031 233.023438 130.527344 232.632812 130.859375 232.253906 C 131.191406 231.871094 131.535156 231.503906 131.890625 231.144531 C 132.246094 230.785156 132.609375 230.4375 132.984375 230.097656 C 133.359375 229.761719 133.746094 229.433594 134.140625 229.121094 C 134.535156 228.804688 134.9375 228.5 135.351562 228.210938 C 135.761719 227.917969 136.183594 227.640625 136.613281 227.375 C 137.042969 227.109375 137.476562 226.855469 137.921875 226.617188 C 138.367188 226.378906 138.816406 226.152344 139.273438 225.9375 C 139.730469 225.726562 140.195312 225.527344 140.664062 225.339844 C 141.132812 225.15625 141.609375 224.984375 142.089844 224.824219 C 142.566406 224.667969 143.050781 224.527344 143.539062 224.398438 C 144.027344 224.269531 144.519531 224.15625 145.015625 224.054688 C 145.507812 223.957031 146.007812 223.871094 146.507812 223.800781 C 147.007812 223.730469 147.507812 223.675781 148.011719 223.636719 C 148.515625 223.597656 149.019531 223.574219 149.523438 223.5625 C 150.027344 223.550781 150.53125 223.558594 151.035156 223.578125 C 151.539062 223.597656 152.042969 223.632812 152.546875 223.683594 C 153.046875 223.730469 153.546875 223.796875 154.046875 223.875 C 154.546875 223.957031 155.039062 224.050781 155.535156 224.160156 C 156.027344 224.269531 156.515625 224.394531 157 224.53125 C 157.484375 224.667969 157.96875 224.820312 158.445312 224.988281 C 158.917969 225.15625 159.390625 225.335938 159.855469 225.53125 C 160.320312 225.726562 160.78125 225.933594 161.234375 226.15625 C 161.6875 226.378906 162.132812 226.613281 162.574219 226.863281 C 163.011719 227.113281 163.445312 227.375 163.867188 227.648438 C 164.292969 227.921875 164.707031 228.207031 165.113281 228.507812 C 165.519531 228.804688 165.917969 229.117188 166.304688 229.441406 C 166.695312 229.761719 167.070312 230.097656 167.441406 230.441406 C 167.808594 230.785156 168.164062 231.140625 168.511719 231.507812 C 168.859375 231.875 169.195312 232.25 169.519531 232.636719 C 169.84375 233.023438 170.160156 233.421875 170.460938 233.824219 C 170.761719 234.230469 171.050781 234.644531 171.328125 235.066406 Z M 171.328125 235.066406 " fill-opacity="1" fill-rule="nonzero"/><path fill="#933200" d="M 77.136719 126.164062 C 77.535156 126.980469 77.886719 127.820312 78.195312 128.675781 C 78.503906 129.53125 78.765625 130.402344 78.980469 131.289062 C 79.195312 132.171875 79.359375 133.066406 79.480469 133.96875 C 79.597656 134.875 79.667969 135.78125 79.6875 136.691406 C 79.707031 137.601562 79.679688 138.507812 79.601562 139.417969 C 79.523438 140.324219 79.398438 141.222656 79.226562 142.117188 C 79.050781 143.011719 78.828125 143.894531 78.558594 144.761719 C 78.289062 145.632812 77.976562 146.484375 77.613281 147.320312 C 77.253906 148.15625 76.847656 148.972656 76.398438 149.765625 C 75.949219 150.554688 75.460938 151.320312 74.929688 152.0625 C 74.394531 152.800781 73.828125 153.507812 73.21875 154.1875 C 72.613281 154.867188 71.96875 155.507812 71.292969 156.117188 C 70.613281 156.726562 69.90625 157.296875 69.167969 157.832031 C 68.429688 158.363281 67.664062 158.855469 66.875 159.304688 C 66.082031 159.753906 65.269531 160.160156 64.433594 160.523438 C 63.597656 160.886719 62.746094 161.203125 61.875 161.472656 C 61.007812 161.746094 60.125 161.96875 59.230469 162.144531 C 58.339844 162.320312 57.4375 162.445312 56.53125 162.527344 C 55.625 162.605469 54.714844 162.632812 53.804688 162.613281 C 52.894531 162.597656 51.988281 162.527344 51.085938 162.410156 C 50.183594 162.292969 49.289062 162.128906 48.402344 161.917969 C 47.515625 161.703125 46.644531 161.445312 45.789062 161.136719 C 44.929688 160.828125 44.09375 160.476562 43.273438 160.082031 C 42.453125 159.683594 41.660156 159.242188 40.886719 158.761719 C 40.113281 158.277344 39.371094 157.753906 38.65625 157.191406 C 37.941406 156.628906 37.257812 156.027344 36.605469 155.390625 C 35.953125 154.753906 35.339844 154.085938 34.761719 153.382812 C 34.183594 152.679688 33.644531 151.949219 33.144531 151.1875 C 32.644531 150.425781 32.183594 149.640625 31.769531 148.828125 C 31.355469 148.019531 30.984375 147.1875 30.65625 146.339844 C 30.332031 145.488281 30.054688 144.621094 29.820312 143.742188 C 29.585938 142.863281 29.402344 141.972656 29.265625 141.070312 C 29.128906 140.171875 29.042969 139.265625 29 138.355469 C 28.960938 137.445312 28.972656 136.539062 29.03125 135.628906 C 29.089844 134.71875 29.195312 133.816406 29.351562 132.921875 C 29.507812 132.023438 29.710938 131.136719 29.964844 130.261719 C 30.214844 129.386719 30.511719 128.527344 30.855469 127.683594 C 31.199219 126.839844 31.589844 126.019531 32.023438 125.21875 C 32.453125 124.417969 32.929688 123.640625 33.445312 122.890625 C 33.960938 122.140625 34.515625 121.421875 35.109375 120.730469 C 35.703125 120.039062 36.332031 119.382812 36.996094 118.761719 C 37.660156 118.136719 38.355469 117.550781 39.082031 117.003906 C 39.8125 116.457031 40.566406 115.949219 41.347656 115.484375 C 42.128906 115.015625 42.933594 114.59375 43.761719 114.214844 C 44.589844 113.835938 45.4375 113.5 46.300781 113.210938 C 47.164062 112.921875 48.039062 112.683594 48.929688 112.488281 C 49.820312 112.292969 50.714844 112.148438 51.621094 112.050781 C 52.527344 111.953125 53.433594 111.90625 54.34375 111.90625 C 55.527344 111.902344 56.707031 111.980469 57.878906 112.144531 C 59.050781 112.304688 60.207031 112.550781 61.34375 112.875 C 62.480469 113.199219 63.589844 113.601562 64.671875 114.082031 C 65.753906 114.5625 66.792969 115.117188 67.796875 115.746094 C 68.800781 116.375 69.753906 117.066406 70.660156 117.828125 C 71.566406 118.589844 72.414062 119.414062 73.203125 120.292969 C 73.992188 121.175781 74.71875 122.105469 75.375 123.089844 C 76.035156 124.074219 76.621094 125.097656 77.136719 126.164062 Z M 77.136719 126.164062 " fill-opacity="1" fill-rule="nonzero"/><path fill="#933200" d="M 280.285156 173.554688 C 280.285156 174.386719 280.242188 175.21875 280.160156 176.042969 C 280.078125 176.871094 279.957031 177.695312 279.792969 178.507812 C 279.628906 179.324219 279.425781 180.128906 279.1875 180.925781 C 278.945312 181.722656 278.664062 182.503906 278.34375 183.269531 C 278.027344 184.039062 277.671875 184.789062 277.277344 185.523438 C 276.886719 186.253906 276.457031 186.96875 275.996094 187.660156 C 275.535156 188.351562 275.039062 189.015625 274.511719 189.660156 C 273.984375 190.300781 273.425781 190.917969 272.839844 191.503906 C 272.25 192.09375 271.636719 192.652344 270.992188 193.179688 C 270.351562 193.707031 269.683594 194.203125 268.992188 194.664062 C 268.300781 195.125 267.589844 195.554688 266.855469 195.945312 C 266.121094 196.339844 265.371094 196.695312 264.601562 197.011719 C 263.835938 197.332031 263.054688 197.609375 262.257812 197.851562 C 261.460938 198.09375 260.65625 198.296875 259.839844 198.460938 C 259.027344 198.625 258.203125 198.746094 257.378906 198.828125 C 256.550781 198.910156 255.71875 198.953125 254.890625 198.953125 C 254.058594 198.953125 253.226562 198.914062 252.398438 198.832031 C 251.570312 198.75 250.75 198.628906 249.933594 198.464844 C 249.117188 198.304688 248.3125 198.101562 247.515625 197.859375 C 246.71875 197.617188 245.9375 197.339844 245.167969 197.019531 C 244.402344 196.703125 243.648438 196.347656 242.917969 195.953125 C 242.183594 195.5625 241.46875 195.136719 240.777344 194.671875 C 240.085938 194.210938 239.417969 193.714844 238.777344 193.1875 C 238.132812 192.660156 237.519531 192.101562 236.929688 191.515625 C 236.34375 190.925781 235.785156 190.3125 235.257812 189.667969 C 234.730469 189.023438 234.234375 188.359375 233.773438 187.667969 C 233.308594 186.976562 232.882812 186.261719 232.492188 185.527344 C 232.097656 184.792969 231.742188 184.042969 231.425781 183.277344 C 231.105469 182.507812 230.828125 181.726562 230.585938 180.929688 C 230.34375 180.132812 230.140625 179.328125 229.980469 178.511719 C 229.816406 177.695312 229.695312 176.875 229.613281 176.046875 C 229.53125 175.21875 229.492188 174.386719 229.492188 173.554688 C 229.492188 172.722656 229.53125 171.894531 229.613281 171.066406 C 229.695312 170.238281 229.816406 169.417969 229.980469 168.601562 C 230.140625 167.785156 230.34375 166.980469 230.585938 166.183594 C 230.828125 165.386719 231.105469 164.605469 231.425781 163.835938 C 231.742188 163.070312 232.097656 162.316406 232.492188 161.582031 C 232.882812 160.851562 233.308594 160.136719 233.773438 159.445312 C 234.234375 158.753906 234.730469 158.085938 235.257812 157.445312 C 235.785156 156.800781 236.34375 156.1875 236.929688 155.597656 C 237.519531 155.007812 238.132812 154.453125 238.777344 153.921875 C 239.417969 153.394531 240.085938 152.902344 240.777344 152.4375 C 241.46875 151.976562 242.183594 151.550781 242.917969 151.15625 C 243.648438 150.765625 244.402344 150.410156 245.167969 150.09375 C 245.9375 149.773438 246.71875 149.492188 247.515625 149.253906 C 248.3125 149.011719 249.117188 148.808594 249.933594 148.648438 C 250.75 148.484375 251.570312 148.363281 252.398438 148.28125 C 253.226562 148.199219 254.058594 148.160156 254.890625 148.160156 C 255.71875 148.160156 256.550781 148.203125 257.378906 148.285156 C 258.203125 148.367188 259.027344 148.488281 259.839844 148.652344 C 260.65625 148.816406 261.460938 149.015625 262.257812 149.257812 C 263.054688 149.5 263.835938 149.78125 264.601562 150.101562 C 265.371094 150.417969 266.121094 150.773438 266.855469 151.167969 C 267.589844 151.558594 268.300781 151.988281 268.992188 152.449219 C 269.683594 152.910156 270.351562 153.40625 270.992188 153.933594 C 271.636719 154.460938 272.25 155.019531 272.839844 155.605469 C 273.425781 156.195312 273.984375 156.808594 274.511719 157.453125 C 275.039062 158.09375 275.535156 158.761719 275.996094 159.453125 C 276.457031 160.144531 276.886719 160.855469 277.277344 161.589844 C 277.671875 162.324219 278.027344 163.074219 278.34375 163.84375 C 278.664062 164.609375 278.945312 165.390625 279.1875 166.1875 C 279.425781 166.984375 279.628906 167.789062 279.792969 168.605469 C 279.957031 169.417969 280.078125 170.242188 280.160156 171.066406 C 280.242188 171.894531 280.285156 172.726562 280.285156 173.554688 Z M 280.285156 173.554688 " fill-opacity="1" fill-rule="nonzero"/><path fill="#933200" d="M 233.628906 114.910156 C 232.28125 112.851562 231.257812 110.640625 230.558594 108.28125 C 229.859375 105.921875 229.511719 103.511719 229.519531 101.050781 C 229.515625 100.785156 229.523438 100.519531 229.546875 100.253906 C 229.582031 99.253906 229.671875 98.261719 229.824219 97.273438 C 229.972656 96.285156 230.183594 95.308594 230.449219 94.34375 C 230.714844 93.378906 231.039062 92.433594 231.414062 91.507812 C 231.792969 90.582031 232.226562 89.683594 232.710938 88.808594 C 233.195312 87.933594 233.730469 87.089844 234.3125 86.277344 C 234.898438 85.46875 235.527344 84.691406 236.203125 83.957031 C 236.878906 83.21875 237.597656 82.523438 238.355469 81.871094 C 239.113281 81.21875 239.90625 80.613281 240.738281 80.058594 C 241.566406 79.5 242.425781 78.992188 243.316406 78.535156 C 244.207031 78.078125 245.121094 77.675781 246.058594 77.328125 C 246.996094 76.980469 247.949219 76.6875 248.921875 76.453125 C 249.894531 76.21875 250.875 76.039062 251.871094 75.921875 C 252.863281 75.800781 253.859375 75.742188 254.859375 75.742188 C 255.859375 75.742188 256.855469 75.796875 257.847656 75.914062 C 258.84375 76.03125 259.824219 76.207031 260.796875 76.441406 C 261.769531 76.671875 262.726562 76.964844 263.664062 77.308594 C 264.601562 77.65625 265.515625 78.054688 266.40625 78.511719 C 267.296875 78.964844 268.160156 79.46875 268.988281 80.027344 C 269.820312 80.582031 270.617188 81.1875 271.375 81.835938 C 272.136719 82.488281 272.855469 83.179688 273.53125 83.914062 C 274.210938 84.652344 274.839844 85.425781 275.425781 86.234375 C 276.011719 87.042969 276.550781 87.886719 277.035156 88.761719 C 277.523438 89.632812 277.957031 90.535156 278.335938 91.457031 C 278.714844 92.382812 279.039062 93.328125 279.308594 94.292969 C 279.578125 95.253906 279.789062 96.230469 279.941406 97.21875 C 280.09375 98.207031 280.1875 99.199219 280.222656 100.199219 C 280.257812 101.199219 280.234375 102.199219 280.152344 103.195312 C 280.066406 104.191406 279.925781 105.179688 279.726562 106.160156 C 279.527344 107.140625 279.269531 108.105469 278.957031 109.054688 C 278.640625 110.003906 278.273438 110.929688 277.851562 111.835938 C 277.425781 112.742188 276.949219 113.621094 276.421875 114.46875 C 275.894531 115.320312 275.320312 116.132812 274.695312 116.914062 C 274.070312 117.695312 273.402344 118.4375 272.691406 119.140625 C 271.980469 119.84375 271.226562 120.5 270.4375 121.113281 C 269.648438 121.726562 268.824219 122.292969 267.96875 122.808594 C 267.113281 123.324219 266.226562 123.789062 265.316406 124.199219 C 264.40625 124.613281 263.472656 124.96875 262.519531 125.269531 C 261.566406 125.570312 260.597656 125.8125 259.613281 126 C 258.632812 126.1875 257.640625 126.316406 256.644531 126.382812 C 255.648438 126.453125 254.648438 126.464844 253.648438 126.414062 C 252.652344 126.367188 251.65625 126.257812 250.671875 126.09375 C 249.6875 125.925781 248.710938 125.703125 247.753906 125.421875 C 246.792969 125.140625 245.855469 124.804688 244.933594 124.410156 C 244.015625 124.019531 243.121094 123.574219 242.253906 123.074219 C 241.386719 122.574219 240.550781 122.027344 239.75 121.429688 C 238.949219 120.832031 238.183594 120.191406 237.457031 119.503906 C 236.730469 118.816406 236.046875 118.089844 235.40625 117.320312 C 234.765625 116.550781 234.175781 115.75 233.628906 114.910156 Z M 233.628906 114.910156 " fill-opacity="1" fill-rule="nonzero"/></svg>