<svg xmlns="http://www.w3.org/2000/svg" xmlns:xlink="http://www.w3.org/1999/xlink" width="1105" zoomAndPan="magnify" viewBox="0 0 828.75 302.999993" height="404" preserveAspectRatio="xMidYMid meet" version="1.0"><defs><clipPath id="923b2b740a"><path d="M 0 0.046875 L 342.648438 0.046875 L 342.648438 302.953125 L 0 302.953125 Z M 0 0.046875 " clip-rule="nonzero"/></clipPath><clipPath id="b905129a10"><path d="M 485.167969 0.046875 L 827.8125 0.046875 L 827.8125 302.953125 L 485.167969 302.953125 Z M 485.167969 0.046875 " clip-rule="nonzero"/></clipPath></defs><g clip-path="url(#923b2b740a)"><path fill="#933200" d="M 193.550781 157.636719 C 211.160156 157.488281 225.910156 154.328125 237.5 148.003906 C 249.238281 141.835938 257.515625 133.855469 262.632812 124.226562 C 267.75 114.589844 270.910156 99.84375 272.265625 79.972656 C 273.621094 60.105469 275.726562 45.957031 278.890625 37.679688 C 283.101562 26.84375 290.476562 17.964844 300.863281 11.039062 C 311.25 4.117188 325.246094 0.503906 342.855469 0.0546875 L 342.855469 8.179688 C 332.621094 9.082031 325.699219 12.246094 322.085938 17.664062 C 319.375 21.574219 318.023438 31.8125 317.871094 48.066406 C 317.421875 80.125 314.410156 102.550781 308.539062 115.34375 C 301.164062 132.203125 288.371094 145.746094 270.308594 155.984375 C 252.097656 166.21875 226.511719 171.9375 193.550781 173.140625 L 193.550781 260.285156 C 193.550781 272.476562 196.257812 281.207031 201.675781 286.476562 C 207.09375 291.742188 216.277344 294.453125 229.21875 294.453125 L 237.199219 294.453125 L 237.199219 302.578125 L 107.304688 302.578125 L 107.304688 294.453125 L 114.984375 294.453125 C 127.925781 294.453125 137.109375 291.742188 142.527344 286.476562 C 147.945312 281.207031 150.652344 272.476562 150.652344 260.285156 L 150.652344 173.289062 C 122.808594 172.386719 100.835938 168.476562 84.578125 161.550781 C 68.324219 154.628906 55.230469 144.996094 45.445312 132.503906 C 38.824219 124.074219 34.15625 115.496094 31.296875 106.464844 C 29.339844 100.144531 27.988281 92.769531 26.933594 84.1875 L 25.578125 33.316406 C 24.976562 24.285156 22.871094 18.113281 19.40625 14.652344 C 15.945312 11.191406 9.472656 9.082031 -0.0078125 8.332031 L -0.0078125 0.203125 C 18.203125 1.105469 32.203125 4.417969 41.984375 10.289062 C 51.769531 16.15625 58.84375 23.984375 63.207031 34.066406 C 67.570312 44.152344 70.433594 60.859375 71.636719 84.039062 C 72.6875 101.347656 75.699219 114.890625 80.667969 124.375 C 85.632812 133.855469 94.0625 141.835938 105.953125 148.003906 C 117.84375 154.175781 132.59375 157.488281 150.652344 157.636719 L 150.652344 46.109375 C 150.652344 33.917969 147.945312 25.1875 142.527344 19.921875 C 137.109375 14.652344 127.925781 11.941406 114.984375 11.941406 L 107.304688 11.941406 L 107.304688 3.816406 L 237.199219 3.816406 L 237.199219 11.941406 L 229.21875 11.941406 C 216.277344 11.941406 207.09375 14.652344 201.675781 19.921875 C 196.257812 25.1875 193.550781 33.917969 193.550781 46.109375 Z M 193.550781 157.636719 " fill-opacity="1" fill-rule="nonzero"/></g><g clip-path="url(#b905129a10)"><path fill="#000000" d="M 678.714844 157.636719 C 696.328125 157.488281 711.074219 154.328125 722.664062 148.003906 C 734.40625 141.835938 742.683594 133.855469 747.800781 124.226562 C 752.917969 114.589844 756.078125 99.84375 757.433594 79.972656 C 758.789062 60.105469 760.894531 45.957031 764.054688 37.679688 C 768.269531 26.84375 775.644531 17.964844 786.03125 11.039062 C 796.414062 4.117188 810.414062 0.503906 828.023438 0.0546875 L 828.023438 8.179688 C 817.789062 9.082031 810.863281 12.246094 807.253906 17.664062 C 804.542969 21.574219 803.1875 31.8125 803.039062 48.066406 C 802.585938 80.125 799.578125 102.550781 793.707031 115.34375 C 786.332031 132.203125 773.539062 145.746094 755.476562 155.984375 C 737.265625 166.21875 711.679688 171.9375 678.714844 173.140625 L 678.714844 260.285156 C 678.714844 272.476562 681.425781 281.207031 686.84375 286.476562 C 692.261719 291.742188 701.441406 294.453125 714.386719 294.453125 L 722.363281 294.453125 L 722.363281 302.578125 L 592.472656 302.578125 L 592.472656 294.453125 L 600.148438 294.453125 C 613.09375 294.453125 622.273438 291.742188 627.691406 286.476562 C 633.113281 281.207031 635.820312 272.476562 635.820312 260.285156 L 635.820312 173.289062 C 607.976562 172.386719 586 168.476562 569.746094 161.550781 C 553.492188 154.628906 540.398438 144.996094 530.613281 132.503906 C 523.992188 124.074219 519.324219 115.496094 516.464844 106.464844 C 514.507812 100.144531 513.152344 92.769531 512.101562 84.1875 L 510.746094 33.316406 C 510.144531 24.285156 508.035156 18.113281 504.574219 14.652344 C 501.113281 11.191406 494.640625 9.082031 485.160156 8.332031 L 485.160156 0.203125 C 503.371094 1.105469 517.367188 4.417969 527.152344 10.289062 C 536.933594 16.15625 544.007812 23.984375 548.375 34.066406 C 552.738281 44.152344 555.597656 60.859375 556.800781 84.039062 C 557.855469 101.347656 560.867188 114.890625 565.832031 124.375 C 570.800781 133.855469 579.226562 141.835938 591.117188 148.003906 C 603.007812 154.175781 617.757812 157.488281 635.820312 157.636719 L 635.820312 46.109375 C 635.820312 33.917969 633.113281 25.1875 627.691406 19.921875 C 622.273438 14.652344 613.09375 11.941406 600.148438 11.941406 L 592.472656 11.941406 L 592.472656 3.816406 L 722.363281 3.816406 L 722.363281 11.941406 L 714.386719 11.941406 C 701.441406 11.941406 692.261719 14.652344 686.84375 19.921875 C 681.425781 25.1875 678.714844 33.917969 678.714844 46.109375 Z M 678.714844 157.636719 " fill-opacity="1" fill-rule="nonzero"/></g></svg>